<?xml version="1.0" encoding="UTF-8" standalone="no"?>
<!-- Generator: Adobe Illustrator 19.0.0, SVG Export Plug-In . SVG Version: 6.00 Build 0)  -->

<svg
   xmlns:dc="http://purl.org/dc/elements/1.1/"
   xmlns:cc="http://creativecommons.org/ns#"
   xmlns:rdf="http://www.w3.org/1999/02/22-rdf-syntax-ns#"
   xmlns:svg="http://www.w3.org/2000/svg"
   xmlns="http://www.w3.org/2000/svg"
   xmlns:sodipodi="http://sodipodi.sourceforge.net/DTD/sodipodi-0.dtd"
   xmlns:inkscape="http://www.inkscape.org/namespaces/inkscape"
   version="1.1"
   id="Capa_1"
   x="0px"
   y="0px"
   viewBox="0 0 512 512"
   style="enable-background:new 0 0 512 512;"
   xml:space="preserve"
   sodipodi:docname="bitcoin.svg"
   inkscape:version="0.92.4 (f8dce91, 2019-08-02)"><metadata
   id="metadata49"><rdf:RDF><cc:Work
       rdf:about=""><dc:format>image/svg+xml</dc:format><dc:type
         rdf:resource="http://purl.org/dc/dcmitype/StillImage" /><dc:title></dc:title></cc:Work></rdf:RDF></metadata><defs
   id="defs47" /><sodipodi:namedview
   pagecolor="#ffffff"
   bordercolor="#666666"
   borderopacity="1"
   objecttolerance="10"
   gridtolerance="10"
   guidetolerance="10"
   inkscape:pageopacity="0"
   inkscape:pageshadow="2"
   inkscape:window-width="1208"
   inkscape:window-height="998"
   id="namedview45"
   showgrid="false"
   inkscape:zoom="0.921875"
   inkscape:cx="164.63271"
   inkscape:cy="170.96603"
   inkscape:window-x="947"
   inkscape:window-y="582"
   inkscape:window-maximized="0"
   inkscape:current-layer="Capa_1" />
<g
   id="g6"
   transform="translate(6.5084746,1.0847458)"
   style="fill:#ffffff">
	<g
   id="g4"
   style="fill:#ffffff">
		<path
   d="M 256.198,0 C 114.804,-0.119 0.119,114.408 0,255.802 -0.119,397.196 114.408,511.881 255.802,512 397.177,511.881 511.782,397.375 512,256 512,114.685 397.513,0.119 256.198,0 Z m -0.396,469.4 C 137.947,469.4 42.403,373.855 42.403,256 42.403,138.145 137.947,42.601 255.802,42.601 373.617,42.72 469.082,138.185 469.201,256 c 0,117.855 -95.544,213.4 -213.399,213.4 z"
   id="path2"
   inkscape:connector-curvature="0"
   style="fill:#ffffff" />
	</g>
</g>
<g
   id="g12"
   style="fill:#ffffff">
	<g
   id="g10"
   style="fill:#ffffff">
		<path
   d="M324.954,243.517c17.12-9.65,26.373-28.968,23.183-48.347c-3.963-29.919-39.628-41.214-67.765-43.591v-44.978h-27.74    v44.582h-18.625v-44.582h-27.74v44.582H150.39v28.731h20.805c9.313,0,13.87,2.774,13.87,10.303V313.66    c0,10.303-5.152,13.474-10.7,13.474h-21.201v29.325h53.895v45.573h27.938v-45.573h18.625v45.573h27.146v-45.573h5.944    c57.065,0,76.087-27.938,76.087-65.981C362.343,268.047,346.789,248.748,324.954,243.517z M234.006,181.697h19.814    c13.87,0,41.214,2.378,41.214,24.966c0.951,14.742-9.729,27.661-24.372,29.523h-36.656    C234.006,236.186,234.006,181.697,234.006,181.697z M264.718,324.359v-0.198h-30.712v-59.443h35.666    c8.322,0,39.628,2.774,39.628,24.966S294.44,324.359,264.718,324.359z"
   id="path8"
   style="fill:#ffffff" />
	</g>
</g>
<g
   id="g14">
</g>
<g
   id="g16">
</g>
<g
   id="g18">
</g>
<g
   id="g20">
</g>
<g
   id="g22">
</g>
<g
   id="g24">
</g>
<g
   id="g26">
</g>
<g
   id="g28">
</g>
<g
   id="g30">
</g>
<g
   id="g32">
</g>
<g
   id="g34">
</g>
<g
   id="g36">
</g>
<g
   id="g38">
</g>
<g
   id="g40">
</g>
<g
   id="g42">
</g>
</svg>