<?xml version="1.0" encoding="UTF-8" standalone="no"?>
<!-- Generator: Adobe Illustrator 21.1.0, SVG Export Plug-In . SVG Version: 6.00 Build 0)  -->

<svg
   xmlns:dc="http://purl.org/dc/elements/1.1/"
   xmlns:cc="http://creativecommons.org/ns#"
   xmlns:rdf="http://www.w3.org/1999/02/22-rdf-syntax-ns#"
   xmlns:svg="http://www.w3.org/2000/svg"
   xmlns="http://www.w3.org/2000/svg"
   xmlns:sodipodi="http://sodipodi.sourceforge.net/DTD/sodipodi-0.dtd"
   xmlns:inkscape="http://www.inkscape.org/namespaces/inkscape"
   version="1.1"
   id="Layer_1"
   x="0px"
   y="0px"
   viewBox="0 0 128 128"
   style="enable-background:new 0 0 128 128;"
   xml:space="preserve"
   sodipodi:docname="bitcoin2.svg"
   inkscape:version="0.92.4 (f8dce91, 2019-08-02)"><metadata
   id="metadata13"><rdf:RDF><cc:Work
       rdf:about=""><dc:format>image/svg+xml</dc:format><dc:type
         rdf:resource="http://purl.org/dc/dcmitype/StillImage" /><dc:title></dc:title></cc:Work></rdf:RDF></metadata><defs
   id="defs11" /><sodipodi:namedview
   pagecolor="#ffffff"
   bordercolor="#666666"
   borderopacity="1"
   objecttolerance="10"
   gridtolerance="10"
   guidetolerance="10"
   inkscape:pageopacity="0"
   inkscape:pageshadow="2"
   inkscape:window-width="640"
   inkscape:window-height="480"
   id="namedview9"
   showgrid="false"
   inkscape:zoom="1.84375"
   inkscape:cx="64"
   inkscape:cy="64"
   inkscape:window-x="0"
   inkscape:window-y="34"
   inkscape:window-maximized="0"
   inkscape:current-layer="Layer_1" />
<style
   type="text/css"
   id="style2">
	.st0{fill:#FFFFFF;}
</style>

<path
   class="st0"
   d="m 109.77996,75.291226 c -0.76652,-5.518961 -3.526,-9.811486 -8.27844,-12.570966 -2.146258,-1.226436 -4.752434,-2.146263 -7.205306,-3.219394 0.306609,-0.153304 0.459914,-0.459913 0.613218,-0.459913 12.111048,-6.285483 11.037918,-24.988627 2.299567,-31.427415 -3.526002,-2.606175 -7.511918,-4.292524 -11.804443,-5.212351 -3.066089,-0.613218 -5.978874,-1.073131 -9.198268,-1.686349 0,-5.365656 0.153305,-13.0308793 0.153305,-19.0097533 H 64.861758 c 0,5.8255695 -0.153304,13.3374883 -0.153304,18.5498393 -3.219394,0 -6.132179,0 -9.044963,0 0,-5.365656 0,-12.7242698 0.153304,-18.5498393 h -11.34453 c 0,6.1321784 -0.153305,13.4907923 -0.153305,18.8564483 -7.818527,0 -15.330446,-0.153304 -22.995669,-0.153304 0,4.13922 0,8.125136 -0.153304,12.111052 1.686349,0 3.066089,0 4.599134,0 1.37974,0 2.912785,0 4.292525,0.153305 3.985916,0.306609 5.978874,2.452871 5.978874,6.438787 -0.153305,16.250273 -0.306609,32.65385 -0.459914,48.904123 0,3.526002 -1.533044,5.059047 -5.059047,5.059047 -2.452871,0 -5.059047,0 -7.665223,0 -0.766522,4.599134 -1.533045,9.044967 -2.452871,13.644097 7.665223,0.1533 15.330446,0.1533 22.995669,0.30661 0,5.82557 0,13.33749 -0.153305,19.46967 h 11.34453 c 0,-6.13218 0.153305,-13.33749 0.153305,-19.16306 3.219393,0.1533 6.132178,0.1533 9.044963,0.30661 0,5.82557 -0.153305,12.87757 -0.153305,18.85645 h 11.34453 c 0,-6.13218 0.153305,-13.33749 0.153305,-19.00976 0.459913,0 0.766522,-0.1533 0.919827,-0.1533 5.365656,-0.91983 11.037921,-1.37974 16.250272,-2.60618 6.898701,-1.68635 12.417664,-5.672263 15.177144,-12.570964 2.60617,-5.51896 3.06609,-11.037921 2.29956,-16.86349 z M 55.663491,33.745717 c 7.052005,0 13.950705,-0.613218 20.542797,2.299567 4.292525,1.839653 6.438787,5.365656 6.132179,9.658181 -0.306609,4.445829 -2.912785,7.665223 -7.358615,9.198267 -6.285482,1.992958 -12.72427,1.992958 -19.469666,1.686349 0,-7.665223 0.153305,-15.023837 0.153305,-22.842364 z m 24.835322,56.875955 c -6.285483,2.75948 -13.030879,2.75948 -19.622971,2.912784 -1.839653,0 -3.679307,-0.153304 -5.825569,-0.153304 0.153304,-8.431745 0.153304,-16.710186 0.306609,-25.141932 8.585049,0 17.170099,-0.613217 25.295236,2.912785 4.13922,1.839654 6.592091,5.059047 6.592091,9.811486 0,4.752438 -2.452871,7.818527 -6.745396,9.658181 z"
   id="path6"
   inkscape:connector-curvature="0"
   style="fill:#ffffff;stroke-width:1.53304458" />
</svg>